<svg xmlns="http://www.w3.org/2000/svg" viewBox="0 0 582.87 196.89"><defs><style>.cls-1,.cls-2{fill:#3c6b43;}.cls-2{font-size:120px;font-family:Harabara;letter-spacing:0.05em;}</style></defs><g id="Layer_4" data-name="Layer 4"><path class="cls-1" d="M42.09,86.32c.55,6,1,12,1.65,18a65.05,65.05,0,0,0,3.81,17.31,2.91,2.91,0,0,0,1.84,1.84c8,3.31,16.08,6.75,24.13,10.07A4.51,4.51,0,0,1,76.46,137a132,132,0,0,0,9.39,27.44c5.84,12.71,12.16,25.17,20.75,36.28.25.31.43.62.74,1a50.09,50.09,0,0,1-14.12,3.19c-13.93,1-26.33-3-37.51-11.17a1.72,1.72,0,0,1-.79-2.09,127.78,127.78,0,0,0,3.86-22c1-11.78-.36-23.14-5.64-33.82-3.32-6.75-6.88-13.38-10.19-20.07A83.08,83.08,0,0,1,36.5,95.22a1.39,1.39,0,0,1,.12-1.1l5-8.11A2.47,2.47,0,0,1,42.09,86.32Z" transform="translate(-36.44 -35.04)"/><path class="cls-1" d="M58.29,117c.55-1.22,1.29-2.39,1.78-3.68.43-1,1-1.54,2.09-1.23,3.62.92,7.18.55,10.8,0a53,53,0,0,0,26.52-11.42c3-2.45,6-4.78,9-7.06a8.39,8.39,0,0,1,2.51-.85c0,.49.06.61,0,.67-1,1.41-1.9,2.89-2.94,4.24-5.16,6.87-9.83,14-12.77,22.22-1.9,5.4-2.83,10.74-.68,16.2.86,2.28,1.91,4.42,3,6.76-1.72-.8-3.44-1.72-5.16-2.46-13.62-6-27.25-12-40.94-17.92a6.13,6.13,0,0,1-3.87-4.67c-1.66-6.87-3.07-13.75-3.19-20.87-.06-5.22-.55-10.37-.49-15.59a21.89,21.89,0,0,1,3.56-12.1,1.74,1.74,0,0,1,2.21-.85,55.23,55.23,0,0,1,16.39,7.48,17.07,17.07,0,0,1,5.71,6.45C73.15,85,72.9,86,70.2,87.18a13.43,13.43,0,0,0-6.51,5.95,49.29,49.29,0,0,0-3.56,8.05c-.92,2.76-2.21,5.52-1.35,8.53a26.86,26.86,0,0,0-4.29-.43,4.64,4.64,0,0,0-3.56,2.15c1.22-.19,2.27-.8,3.43-1a15.29,15.29,0,0,1,3.69.25c-1.11,1-2.34,1.6-3.13,2.52a3.86,3.86,0,0,0-.92,3.5c.92-2.34,2.21-4.06,5.15-4.73-.49,1.84-.92,3.31-1.35,4.85A4.37,4.37,0,0,0,58.29,117Z" transform="translate(-36.44 -35.04)"/><path class="cls-1" d="M72.35,110.94c-3.87.06-7.67.12-11.48.12-.37,0-1-.74-1-1.11a26.07,26.07,0,0,1,.24-4.85,30.8,30.8,0,0,1,4-10.8,14.92,14.92,0,0,1,6.7-6.2,11.06,11.06,0,0,0,2.27-1.35A2.28,2.28,0,0,0,73.88,84a15.75,15.75,0,0,0-4.35-6.88A44.16,44.16,0,0,0,55.47,69c-1.72-.61-3.44-1.29-5.28-2,.49-.36.8-.61,1.1-.85l9.4-6.82A37.61,37.61,0,0,0,74.07,41.51a7.7,7.7,0,0,1,3.87-4.36,18.22,18.22,0,0,0,1.84-.86c2.33-1.72,4.54-1.17,6.57.49a20.06,20.06,0,0,1,3.25,3.13,59,59,0,0,1,6.26,10.38c4.67,9.7,2,18.78-2,27.87-1-4.85-1-9.76-3.06-14.49a13.94,13.94,0,0,0-1.35,1.1A35.79,35.79,0,0,0,81.93,74.9a9,9,0,0,0-1.11,5.47,1.82,1.82,0,0,1-.37,1.1c-.43.68-1.23,1.17-1.41,1.9-.61,2.64-1,5.34-1.53,8-.13.62-.31,1.54-.74,1.72a4.48,4.48,0,0,0-2.52,3.56c-.3,1.72-.67,3.38-.8,5.1-.24,3-.3,5.95-.49,9C72.72,110.87,72.53,111,72.35,110.94Zm1.78-34.07A4.91,4.91,0,0,0,78.24,79a1.85,1.85,0,0,0,2-1.35,34.61,34.61,0,0,1,9.7-14,1.25,1.25,0,0,0,.3-1.29c-2-3.81-4-7.61-6.2-11.36a5.87,5.87,0,0,0-4.48-3.25,2.4,2.4,0,0,0-1.9.61c-4.85,5-6.32,11.42-7.06,17.5C70.75,70.3,71.74,73.86,74.13,76.87Z" transform="translate(-36.44 -35.04)"/><path class="cls-1" d="M109.55,110.38c.18,7.74,1.23,15.35,4.36,22.53a19.16,19.16,0,0,1,2,8.84,5.49,5.49,0,0,1-5.52,5.34c-2.7.06-5-1.23-7.43-2.09a9.65,9.65,0,0,1-5.46-4.84c-2.58-5-3.69-10.32-2.09-15.9a78.3,78.3,0,0,1,10.68-22.1,7.7,7.7,0,0,1,5.47-3.38A28.77,28.77,0,0,0,109.55,110.38Z" transform="translate(-36.44 -35.04)"/><path class="cls-1" d="M121.83,141c.55,6.14,1.1,12.28,1.72,18.42.24,2.52.79,5.09.79,7.67,0,3.62-2.27,5.47-5.83,5.16a14.36,14.36,0,0,1-8.9-4.11c-4-3.93-4.6-9-4-14.18.25-2.15.86-4.18,1.29-6.39a8.23,8.23,0,0,0,7.86-.8c2.76-1.78,2-4.66,2.27-7.42,1.59.12,3.07.18,4.6.3C121.7,140.22,121.77,140.58,121.83,141Z" transform="translate(-36.44 -35.04)"/><path class="cls-1" d="M130.48,130.76a4.82,4.82,0,0,0,1.29-3.07c.12-1.29-.86-1.78-2-1-1.35.86-2.77,1.47-3.26,3.32-.73,2.57-3.8,2.27-5.4,3.86a20.91,20.91,0,0,1-2.58,2,3.78,3.78,0,0,1-1.72.73c-.18.06-.67-.55-.79-.92a21.18,21.18,0,0,1-.74-3.86c-.12-2.71-.06-5.35-.06-8v-4.49h8.16c-.24-.73-.43-1.29-.61-1.9.74-.18,1.41-.31,2.27-.49.37,2.82,2.46,2.52,4.42,2.46,2.58-.07,5.16,0,7.8,0v9l-3.69-.19c.62.74,1.17,1.11,1.35,1.6a3.14,3.14,0,0,1,0,1.72,15.54,15.54,0,0,1-.79,2.15,4.29,4.29,0,0,1-.62,1.29c-2,2.21-4.11,2.94-7.06,1A10.38,10.38,0,0,1,130.48,130.76Z" transform="translate(-36.44 -35.04)"/><path class="cls-1" d="M96.41,155.07c-6-6-12-12.15-17.92-18.23A9.37,9.37,0,0,1,77.38,135c.13-.06.19-.19.31-.25q14.09,6.54,28.36,13.14c-1.53,5.34-2.39,11-.18,16.27C102.86,161.27,99.61,158.2,96.41,155.07Z" transform="translate(-36.44 -35.04)"/><path class="cls-1" d="M74.5,110.57c-1.35-2,.06-12.28,1.41-14.92,5.28,2.89,10.5,5.71,15.9,8.66A40.66,40.66,0,0,1,74.5,110.57Z" transform="translate(-36.44 -35.04)"/><path class="cls-1" d="M117.59,107.74a1.88,1.88,0,0,1,.12-.55c.68-1.41,3.32-2.27,5.22-1.6s2.58,2,1.9,3.93c-.49,1.29-1.41,2.46-1.84,3.81-.55,1.72-1.78,1.35-2.94,1.1-1.6-.3-2.52-1.35-2.46-2.57Z" transform="translate(-36.44 -35.04)"/><path class="cls-1" d="M114.77,93.75c2.64,3.5,6.32,5.52,10.06,7.18-.42.61-.85,1.1-1.28,1.66-1.11-.43-2.15-.86-3.14-1.35-.55-.25-1.22-.56-1.35-1a6.75,6.75,0,0,0-2.88-3.37,9.34,9.34,0,0,1-1.72-1.72c-.25-.25-.12-.8-.18-1.23A.85.85,0,0,0,114.77,93.75Z" transform="translate(-36.44 -35.04)"/><path class="cls-1" d="M118,101.85c.25.74.37,1.66-.74,1.84s-2.88-1.41-3.07-2.39,1-2.7,2.15-3.19C116.92,99.4,117.53,100.56,118,101.85Z" transform="translate(-36.44 -35.04)"/><path class="cls-1" d="M130.36,102.53a1.76,1.76,0,0,1,1.66-1.91c.79-.12,2.39,2.09,2.15,3.26-.13.55-.86.92-1.36,1.35C131.1,104.92,130.36,104.12,130.36,102.53Z" transform="translate(-36.44 -35.04)"/><path class="cls-1" d="M120.84,137c1-.06,2.21.49,3,.13,2-.86,3.56.12,5.22.79v1.35c-3.38-.55-6.75-1.16-10.5-1.78C119.49,137.27,120.17,137,120.84,137Z" transform="translate(-36.44 -35.04)"/><path class="cls-1" d="M126.68,105.53a1,1,0,0,0-.68-.18c-1.47.37-1.35-.86-1.53-1.6a1.44,1.44,0,0,1,1.1-1.78c1.72-.55,2.7.31,2.76,2.4C128.4,105.78,128,106.09,126.68,105.53Z" transform="translate(-36.44 -35.04)"/><path class="cls-1" d="M129.5,102.34c-4-2.82-9.27-3.37-12.52-7.3,4,2.64,8.1,5.46,13.5,5C130.05,101,129.75,101.67,129.5,102.34Z" transform="translate(-36.44 -35.04)"/><path class="cls-1" d="M117.1,106c-.06,1.17-.06,2.34-.12,3.5,0,.43-.19,1.23-.37,1.23a2,2,0,0,1-1.47-.37c-.31-.18-.43-.86-.37-1.23.3-1.59.73-3.19,1.1-5C116.92,104.24,117.16,105,117.1,106Z" transform="translate(-36.44 -35.04)"/><path class="cls-1" d="M136.07,104.8c-.06-1.35.86-3,1.59-3.07s1.78,1.66,1.78,3c0,.92-.36,1.28-1.47,1.1C137.42,105.59,136.19,106.21,136.07,104.8Z" transform="translate(-36.44 -35.04)"/><path class="cls-1" d="M109.12,98.35c.86-1.47,1.72-2.95,2.64-4.36.49-.79,1.1-1,1.84-.43a8,8,0,0,0-1,2.27c-.12,2.21-2,2-3.19,2.77C109.3,98.54,109.24,98.41,109.12,98.35Z" transform="translate(-36.44 -35.04)"/><path class="cls-1" d="M122.75,133.77c.43-.43,1.59-.31,2.39-.24.43.06.8.49,1.17.73-.31.43-.55,1-1,1.17a30.74,30.74,0,0,1-3,1.1A2.26,2.26,0,0,1,122.75,133.77Z" transform="translate(-36.44 -35.04)"/><path class="cls-1" d="M134.47,141.2c.62.12,1.72,1,1.66,1.41-.12,1.35-1.53,1.35-2.52,1.47-.37.07-.86-.55-1.16-.79C132.63,141.75,133.49,141.14,134.47,141.2Z" transform="translate(-36.44 -35.04)"/><path class="cls-1" d="M133,110.51c.49.12,1.23.55,1.23.79a9.51,9.51,0,0,1-.68,2.28,19.29,19.29,0,0,0-2.33-1.36c-1-.49-1-1.16-.68-1.9A13.14,13.14,0,0,1,133,110.51Z" transform="translate(-36.44 -35.04)"/><path class="cls-1" d="M138.22,108.66a16.45,16.45,0,0,1,0,1.72,3,3,0,0,1-.49.86c-.31-.18-.8-.3-.86-.55-.37-1.23-.62-2.46-1-3.87C138.22,106.82,138.22,106.82,138.22,108.66Z" transform="translate(-36.44 -35.04)"/><path class="cls-1" d="M130.79,140.34a3.23,3.23,0,0,1-.86-1.9c-.06-.19.61-.86.86-.8a16.83,16.83,0,0,1,2.82.74C132.88,140,131.59,140.89,130.79,140.34Z" transform="translate(-36.44 -35.04)"/><path class="cls-1" d="M137.48,134.81a25.69,25.69,0,0,1-1,3.69c-.19.37-1.23.43-1.84.37a1.76,1.76,0,0,1-.37-1.17,40.86,40.86,0,0,1,2.64-3.13A2.19,2.19,0,0,0,137.48,134.81Z" transform="translate(-36.44 -35.04)"/><path class="cls-1" d="M125.69,132.73c.8-1.17,1.54-2.4,2.34-3.5a1.17,1.17,0,0,1,1.1-.37,1.46,1.46,0,0,1,.86.86c.06.18-.43.55-.67.8-.56.55-1,1.16-1.66,1.66a11.91,11.91,0,0,1-1.84,1A1.55,1.55,0,0,1,125.69,132.73Z" transform="translate(-36.44 -35.04)"/><path class="cls-1" d="M137.79,143.35c.18,0,.37-.06.55-.06.49.67,1.29,1.35,1.35,2s-1.72,1.35-3.38,1C136.8,145.25,137.3,144.33,137.79,143.35Z" transform="translate(-36.44 -35.04)"/><path class="cls-1" d="M132.39,141.44c-.31.68-.56,1.17-.86,1.85-2.64-3.2-6.33-3.75-10-4.67C125.51,138.38,128.64,140.89,132.39,141.44Z" transform="translate(-36.44 -35.04)"/><path class="cls-1" d="M131,113.7c.13-.25.43-.55.62-.49s.73.37.73.55a6.76,6.76,0,0,1-.61,2.82c-.31.49-1.41.49-2.46.74C130,115.79,130.48,114.74,131,113.7Z" transform="translate(-36.44 -35.04)"/><path class="cls-1" d="M141.29,137.27c-1,2.33-1,2.33-2.64,1-.31-.24-.68-.37-1.17-.67C138.83,135.8,139.94,137.52,141.29,137.27Z" transform="translate(-36.44 -35.04)"/><path class="cls-1" d="M141.47,140.89c.18-.12.55.12.86.19-.06.24-.06.55-.25.73-.73.68-1.47,1.29-2.21,2-.43-.43-.79-.74-1.28-1.23C139.63,141.94,140.55,141.38,141.47,140.89Z" transform="translate(-36.44 -35.04)"/><path class="cls-1" d="M140.86,133.1c1,.3,1.53.92,1.1,2-.37.86-.86,1.78-2.21,1.35C140.12,135.18,140.49,134.2,140.86,133.1Z" transform="translate(-36.44 -35.04)"/><path class="cls-1" d="M125.2,114.86c-.73,2-2.15,2.4-4.17,1C122.75,116.09,123.55,113.94,125.2,114.86Z" transform="translate(-36.44 -35.04)"/><path class="cls-1" d="M137.17,112.59c.31-.24.68-.67,1-.67.73.06,1.78-.13,1.84,1.1,0,.31-.56,1-.68,1a17.25,17.25,0,0,1-2.21-.85A1.78,1.78,0,0,1,137.17,112.59Z" transform="translate(-36.44 -35.04)"/><path class="cls-1" d="M139.26,115.48a6.84,6.84,0,0,1-1.9.73,6.25,6.25,0,0,1-1.91-.73,6.43,6.43,0,0,0,.19-.68h3.44C139.14,115,139.2,115.23,139.26,115.48Z" transform="translate(-36.44 -35.04)"/><path class="cls-1" d="M113.91,95.28a11.54,11.54,0,0,1,1,2.4c.06.24-.74.67-1.53,1.29v-3.5C113.6,95.4,113.72,95.34,113.91,95.28Z" transform="translate(-36.44 -35.04)"/><path class="cls-1" d="M126.49,114.37c-.86-.24-1.66-.49-2.51-.73.36-1.42,1.41-1.29,2.27-1,.36.13.43,1,.67,1.54Z" transform="translate(-36.44 -35.04)"/><path class="cls-1" d="M131.83,109.83V105.9c.8-.37,1.35-.12,1.17.86a24.3,24.3,0,0,1-.61,3A1.61,1.61,0,0,1,131.83,109.83Z" transform="translate(-36.44 -35.04)"/><path class="cls-1" d="M125.82,106.39c1,.56.86,3.93,0,5.22Z" transform="translate(-36.44 -35.04)"/><path class="cls-1" d="M143.25,137.76c1.9-.18,2.39.43,1.9,2.33C144.36,139.11,143.8,138.44,143.25,137.76Z" transform="translate(-36.44 -35.04)"/><path class="cls-1" d="M137.73,133.16c-1,1.65-1.85-.13-2.77,0C135.52,131.62,135.82,131.68,137.73,133.16Z" transform="translate(-36.44 -35.04)"/><path class="cls-1" d="M136.93,132.3c-.49-1.23-.8-2.15-1.29-3.32C137.6,129.78,137.91,130.39,136.93,132.3Z" transform="translate(-36.44 -35.04)"/><path class="cls-1" d="M143.19,141.14c-.31-.25-.31-.8-.43-1.17l2.45.19C144.54,141.57,144,141.87,143.19,141.14Z" transform="translate(-36.44 -35.04)"/><path class="cls-1" d="M132.75,137.15c.86-1.11,1.72-2.15,2.58-3.26l.37.19c-.25,1.47-1.72,2.15-2.33,3.37A2,2,0,0,1,132.75,137.15Z" transform="translate(-36.44 -35.04)"/><path class="cls-1" d="M117.9,136.9v2c-1.66.3-1.54-.74-1.41-1.84C117,137,117.35,137,117.9,136.9Z" transform="translate(-36.44 -35.04)"/><path class="cls-1" d="M121.15,134.51c.37,1.84.12,2.08-2.21,1.9C119.8,135.67,120.41,135.12,121.15,134.51Z" transform="translate(-36.44 -35.04)"/><path class="cls-1" d="M138,138.5a2,2,0,0,1,.43.37c-.67.86-1.35,1.71-2,2.51,0,.06-.43-.3-.74-.49C136.56,140,137.3,139.23,138,138.5Z" transform="translate(-36.44 -35.04)"/><path class="cls-1" d="M115.32,113.64c-.18-1-.37-1.6-.55-2.46a9.56,9.56,0,0,0,1,.37c.31.12.61.18,1.41.43C116.49,112.59,116.06,113,115.32,113.64Z" transform="translate(-36.44 -35.04)"/><path class="cls-1" d="M76.71,62.13a3.45,3.45,0,0,1-2-3.68c.8,1.17,1.66,2.27,2.46,3.38A1.87,1.87,0,0,0,76.71,62.13Z" transform="translate(-36.44 -35.04)"/><path class="cls-1" d="M84.63,67.11a4.74,4.74,0,0,1-1.6-.37c-.12-.06-.06-.37-.12-.62a12.5,12.5,0,0,1,1.47-.24,5.75,5.75,0,0,1,1.54.55C85.24,66.86,84.93,67.17,84.63,67.11Z" transform="translate(-36.44 -35.04)"/></g><g id="Layer_5" data-name="Layer 5"><text class="cls-2" transform="translate(115.81 80.64)">Burncoat<tspan x="0" y="90">Robotics</tspan></text></g></svg>