<svg xmlns="http://www.w3.org/2000/svg" viewBox="0 0 572.67 84.03"><defs><style>.cls-1,.cls-3{fill:#fff;}.cls-2{fill:#3c6b43;}.cls-3{font-size:18px;font-family:Harabara;}</style></defs><g id="Layer_1" data-name="Layer 1"><path class="cls-1" d="M23.36,76.92V29A5.58,5.58,0,0,1,29,23.35H62.28v9.19h-28V44.06H55.12v3.58a5.57,5.57,0,0,1-5.61,5.61H34.26V76.92Z" transform="translate(-23.36 -14.73)"/><path class="cls-1" d="M69.87,23.35h5.6a5.33,5.33,0,0,1,5.3,5.3v3.27H69.87Zm0,12.15h5.6a5.33,5.33,0,0,1,5.3,5.29V76.92H69.87Z" transform="translate(-23.36 -14.73)"/><path class="cls-1" d="M122.14,76.92h-5.45a5.07,5.07,0,0,1-5.29-5.3V50.45c0-2.5-.75-4.31-2.26-5.45a8.18,8.18,0,0,0-5.06-1.71,7.84,7.84,0,0,0-5,1.71c-1.46,1.14-2.18,3-2.18,5.45V76.92H86V52.63Q86,42,91.55,38.46a24,24,0,0,1,12.22-3.89,23.39,23.39,0,0,1,12.61,3.58q5.76,3.57,5.76,14.48Z" transform="translate(-23.36 -14.73)"/><path class="cls-1" d="M156,23.2h5.3a5,5,0,0,1,3.74,1.63,5.21,5.21,0,0,1,1.55,3.66V58.85q0,11.07-6.38,14.95a26.12,26.12,0,0,1-13.86,3.9,24.55,24.55,0,0,1-7.94-1.33,13.08,13.08,0,0,1-6.23-4.28q-4.51-5.76-4.52-15.73,0-9.81,4.52-15.72a15.2,15.2,0,0,1,18.84-4.52A14.77,14.77,0,0,1,156,41ZM138.29,55.9q0,6.23,2.34,9.49a7.73,7.73,0,0,0,6.69,3.27,7.56,7.56,0,0,0,6.54-3.27c1.46-2.18,2.18-5.34,2.18-9.49q0-5.61-2.33-8.88a8.15,8.15,0,0,0-6.7-3.11,7.43,7.43,0,0,0-6.38,3.27Q138.29,50.29,138.29,55.9Z" transform="translate(-23.36 -14.73)"/><path class="cls-2" d="M187.48,76.92V29a5.6,5.6,0,0,1,5.61-5.61h20.4q8.72,0,12.92,3.74,4.36,3.9,4.36,11.37a14.6,14.6,0,0,1-2.18,8.25,10.63,10.63,0,0,1-5.92,4.52,8.68,8.68,0,0,1,5,3.73q1.4,2.34,1.71,7.94l.31,6.39v2a11.77,11.77,0,0,0,.16,2c.31,1.87.93,3.06,1.86,3.58H219.56a9,9,0,0,1-.93-3.27,33.1,33.1,0,0,1-.32-3.43l-.15-5.76q-.32-4.66-1.87-6.7c-1.14-1.13-3.17-1.71-6.07-1.71H198.54V76.92Zm11.06-30.21h12.92c2.81,0,4.88-.57,6.23-1.71s2-2.91,2-5.3-.68-4.15-2-5.29-3.11-1.87-5.61-1.87H198.54Z" transform="translate(-23.36 -14.73)"/><path class="cls-2" d="M303.67,28.49V41a13.15,13.15,0,0,1,5-4.83,14,14,0,0,1,6.85-1.55,14.47,14.47,0,0,1,12,6.07q4.68,6.07,4.67,15.72t-4.67,15.73a13,13,0,0,1-6.31,4.28,24.76,24.76,0,0,1-7.86,1.33,26.06,26.06,0,0,1-13.85-3.9q-6.39-3.89-6.39-14.95V23.2h5.3a5.31,5.31,0,0,1,5.29,5.29ZM321.42,55.9q0-5.61-2.33-8.72a7.44,7.44,0,0,0-6.39-3.27A7.89,7.89,0,0,0,306,47q-2.33,3.27-2.33,8.88,0,6.54,2.18,9.49a7.58,7.58,0,0,0,6.54,3.27,7.75,7.75,0,0,0,6.7-3.27Q321.41,62.12,321.42,55.9Z" transform="translate(-23.36 -14.73)"/><path class="cls-2" d="M344,73.18a15.53,15.53,0,0,1-4.67-7.55,34.92,34.92,0,0,1-1.4-9.89,31.25,31.25,0,0,1,1.17-8.41,17.49,17.49,0,0,1,3.66-7,16.16,16.16,0,0,1,10.43-5.52,24.06,24.06,0,0,1,11.52,1,15.88,15.88,0,0,1,8.72,8.1,25.75,25.75,0,0,1,2.65,12,29.84,29.84,0,0,1-1.09,8.56,21.89,21.89,0,0,1-2.8,6.07,15.55,15.55,0,0,1-9.5,6.39,21.24,21.24,0,0,1-10.36.23A18.12,18.12,0,0,1,344,73.18Zm7.48-27.4q-3.27,3.59-3,10.66t2.65,9.89a7,7,0,0,0,3.27,2.1,7.43,7.43,0,0,0,4.75.16,8,8,0,0,0,4.28-3.51c1.24-1.87,1.92-4.87,2-9,0-3.73-.6-6.54-1.79-8.41a8.14,8.14,0,0,0-4.12-3.58,7.71,7.71,0,0,0-4.68-.08A8.14,8.14,0,0,0,351.43,45.78Z" transform="translate(-23.36 -14.73)"/><path class="cls-2" d="M400.9,76.92a82.28,82.28,0,0,1-11.13-.16q-6-.47-6-7.63V23.35h5.61A4.93,4.93,0,0,1,393,24.91a5.08,5.08,0,0,1,1.55,3.74v7h6.39v2.18a5,5,0,0,1-1.56,3.82,5.19,5.19,0,0,1-3.73,1.48h-1.1v23c0,1.77,1,2.65,3.12,2.65h3.27Z" transform="translate(-23.36 -14.73)"/><path class="cls-1" d="M429.75,57.76V76.92H418.7V29a5.58,5.58,0,0,1,5.6-5.61h18.22q8.57,0,12.77,4.36t4.36,12.93q0,8.1-4.21,12.77-4.2,4.35-12.14,4.35Zm0-9.65H440.5c2.9,0,5-.62,6.22-1.87s2-3.11,2-5.92a8.55,8.55,0,0,0-1.87-5.75,8.53,8.53,0,0,0-5.76-1.87H429.75Z" transform="translate(-23.36 -14.73)"/><path class="cls-1" d="M492.93,75.21a19.28,19.28,0,0,1-6.93,2.1,61.91,61.91,0,0,1-6.46.39,16.27,16.27,0,0,1-9.81-3q-4.22-3-4.21-10,0-6.54,3.81-9.35a22.09,22.09,0,0,1,9.74-3.73,8.85,8.85,0,0,0,1.86-.24c.73-.15,1.56-.28,2.5-.39,4.56-.62,6.85-2,6.85-4a3,3,0,0,0-2.41-3,16,16,0,0,0-4.44-.7,11.42,11.42,0,0,0-3.89.62,4.24,4.24,0,0,0-2.5,2.34H466.61A12,12,0,0,1,471,38.15q4.2-3.59,12-3.58,8.71,0,13.08,3a10,10,0,0,1,4.51,8.72V60.41c0,4.15-.75,7.4-2.25,9.73A13.89,13.89,0,0,1,492.93,75.21Zm-2.5-19.16a29.55,29.55,0,0,1-6.07,2l-3.58.77a9.3,9.3,0,0,0-4,2,6.29,6.29,0,0,0-1.09,3.42A5.06,5.06,0,0,0,477,68a5.86,5.86,0,0,0,4,1.25A8.62,8.62,0,0,0,490.43,60Z" transform="translate(-23.36 -14.73)"/><path class="cls-1" d="M506.9,76.92V56.83a25.53,25.53,0,0,1,1.79-10.2,16.89,16.89,0,0,1,4.9-6.62,19.39,19.39,0,0,1,6.93-3.42,30.6,30.6,0,0,1,8.17-1.09h1.56V46.56h-3.58q-4.51,0-6.7,2.17t-2.18,6.85V76.92Z" transform="translate(-23.36 -14.73)"/><path class="cls-1" d="M554.5,76.92a82.43,82.43,0,0,1-11.14-.16q-6-.47-6-7.63V23.35H543a4.93,4.93,0,0,1,3.58,1.56,5.12,5.12,0,0,1,1.55,3.74v7h6.39v2.18a5,5,0,0,1-1.56,3.82,5.22,5.22,0,0,1-3.74,1.48h-1.09v23c0,1.77,1,2.65,3.12,2.65h3.27Z" transform="translate(-23.36 -14.73)"/><path class="cls-1" d="M559.28,63.21h10.59a5.72,5.72,0,0,0,2.33,4.67,11,11,0,0,0,6.23,1.56,10,10,0,0,0,4.83-1.09,3.3,3.3,0,0,0,1.87-3q0-2.8-6.54-4.2a29.62,29.62,0,0,1-4.2-.93q-8.26-2-11.06-4.83A9.55,9.55,0,0,1,560.22,48a12.38,12.38,0,0,1,4.51-9.8c3.11-2.39,7.17-3.58,12.14-3.58q8.1,0,12.93,3.58a13.7,13.7,0,0,1,4.83,10.12h-6.7a4.93,4.93,0,0,1-4.51-2.65l-1.25-1.24A8.35,8.35,0,0,0,577,43a9.3,9.3,0,0,0-4.67.94,3.15,3.15,0,0,0-1.4,2.8q0,2.49,8.1,4.2a15.54,15.54,0,0,0,1.63.47,5.79,5.79,0,0,0,1.32.16q7.95,2,11.06,4.67a9.82,9.82,0,0,1,3,7.47q0,6.85-5,10.59-4.68,3.42-14,3.43-8.88,0-13.23-3.58-4.51-3.59-4.52-10.44Z" transform="translate(-23.36 -14.73)"/><path class="cls-1" d="M293.19,76.94a2.4,2.4,0,0,0-1.73-.72,2.33,2.33,0,0,0-1.61.7l-5.18-5.28a23.88,23.88,0,0,1-3.86,3.52l.49-.35c1.76,1.77,3.51,3.56,5.26,5.34a2.32,2.32,0,0,0-.53,2.61A4.25,4.25,0,0,0,287,84l14.52,14.77h1.14c1.92-1.89,3.85-3.77,5.77-5.67v-.62Z" transform="translate(-23.36 -14.73)"/><path class="cls-1" d="M285.68,43.24h0V38.39a5.88,5.88,0,0,0-1.37-3.25c-2-2.37-5.25-2.57-8.08-3,.31-2.35.64-4.71.75-7.09l-1.48-.68c.25-1.13.49-2.26.75-3.38,1.81-.32,3.4-2.06,2.79-4a3,3,0,0,0-5.3-1c-1.28,1.52-.47,3.71,1.05,4.72-.23,1.14-.47,2.27-.71,3.41h-1.56c-.73,2.43-1.44,4.86-2.18,7.29-3.51-.31-7-.49-10.56-.46-1.69,0-3.38.07-5.06.18l-2.06.13c-.72-2.41-1.43-4.82-2.16-7.22H249c-.25-1.14-.49-2.28-.71-3.43,1.49-1,2.32-3.14,1.08-4.66A3,3,0,0,0,244,17c-.57,1.91,1,3.56,2.82,3.89.25,1.13.49,2.26.73,3.39-.5.22-1,.46-1.48.69.11,2.32.44,4.62.73,6.92-1.35.21-2.71.42-4.06.66-2.83.34-5.87,1.94-6.62,4.9A9.46,9.46,0,0,0,236,38.5V69.72a9.08,9.08,0,0,0,.38,1.85,7.3,7.3,0,0,0,5.41,3.8,120.09,120.09,0,0,0,38.17,0,7.21,7.21,0,0,0,5.39-3.9,12.64,12.64,0,0,0,.36-2.1Zm-11.14-27c.88-1,2.25-.56,3.32-.23l-.65.23.67.42c1.2,1.44-.43,3.68-2.16,3.26A2.2,2.2,0,0,1,274.54,16.27Zm-1.23,9.93c.6-.49,1.45.07,2.13.13-.07,1.87-.33,3.72-.52,5.58l-3.19-.55C272.28,29.64,272.67,27.88,273.31,26.2Zm-23.63-.31c.55,1.75,1,3.53,1.64,5.27a16.75,16.75,0,0,1-3.23.53c-.19-1.79-.39-3.59-.53-5.38A10.9,10.9,0,0,1,249.68,25.89Zm-2.33-6A2.13,2.13,0,0,1,245,17a1.05,1.05,0,0,1,1.05-.88l-.31-.4c.95-.14,2.11-.31,2.82.53A2.2,2.2,0,0,1,247.35,19.87ZM283,70.92a5.21,5.21,0,0,1-3.55,2.19,118.52,118.52,0,0,1-37,.08,6.55,6.55,0,0,1-3.32-1.41,4.77,4.77,0,0,1-1-2.82c0-10,0-20,0-30.08,0-2.24,2.21-3.65,4.22-3.94a98.63,98.63,0,0,1,36.85,0,6.78,6.78,0,0,1,2.95,1.28l.15,0a4.81,4.81,0,0,1,1.05,3.08q0,14.58,0,29.16A7.93,7.93,0,0,1,283,70.92Z" transform="translate(-23.36 -14.73)"/><path class="cls-1" d="M251.67,41.05a150.11,150.11,0,0,1,25.35.51,6.92,6.92,0,0,1,4.23,1.54c.82.77.65,2,.68,3,0,4.5,0,9,0,13.48,0,2-2.32,2.81-4,3a169.73,169.73,0,0,1-32.74,0c-1.71-.21-4.07-1-4.11-3.05q0-7.41,0-14.84c0-1.68,1.74-2.56,3.16-2.87A74.24,74.24,0,0,1,251.67,41.05Zm-6.29,1.78c-1.17.21-3,.49-3.14,2,0,5,0,10,0,15,.59,1.3,2.11,1.55,3.37,1.71a173.32,173.32,0,0,0,31.89,0c1.28-.16,3-.49,3.29-2-.2-5.06.08-10.15-.14-15.21-.68-1.12-2.12-1.31-3.3-1.5A145.94,145.94,0,0,0,245.38,42.83Z" transform="translate(-23.36 -14.73)"/><path class="cls-1" d="M251.51,47.44a4.36,4.36,0,1,0,4.35,4.35A4.36,4.36,0,0,0,251.51,47.44Zm0,6.79A2.23,2.23,0,1,1,253.76,52,2.23,2.23,0,0,1,251.53,54.23Z" transform="translate(-23.36 -14.73)"/><path class="cls-1" d="M268.7,69.3a1.19,1.19,0,0,1-1.18,1.19H255a1.19,1.19,0,0,1-1.19-1.19h0A1.19,1.19,0,0,1,255,68.11h12.49a1.18,1.18,0,0,1,1.18,1.19Z" transform="translate(-23.36 -14.73)"/><path class="cls-1" d="M270.68,47.44A4.36,4.36,0,1,0,275,51.79,4.35,4.35,0,0,0,270.68,47.44Zm-.08,6.79A2.23,2.23,0,1,1,272.83,52,2.23,2.23,0,0,1,270.6,54.23Z" transform="translate(-23.36 -14.73)"/></g><g id="by_FRC_1735" data-name="by FRC 1735"><text class="cls-3" transform="translate(287.44 78.75)">by FRC 1735</text></g></svg>